<?xml version="1.0" encoding="UTF-8"?>
<svg id="_Слой_1" data-name="Слой 1" xmlns="http://www.w3.org/2000/svg" viewBox="0 0 349.56 344.64">
  <defs>
    <style>
      .cls-1 {
        fill: #8eb282;
      }
    </style>
  </defs>
  <path class="cls-1" d="m349.3,163.08c-1.41-26.43-8.88-51.17-21.55-74.48-9.88-18.17-22.72-33.76-38.12-47.17-13.47-11.72-28.73-20.87-44.99-28.23-13.65-6.18-27.85-10.49-42.79-11.98-2.8-.28-5.64-.12-8.5-.42-12.01.7-24.54-.12-36.6-.79-.31.04-.62.09-.94.1-.7.16-1.41.23-2.11.28.2.06.39.12.6.19-.72.23-1.02.42-1.31.4-10.9-.87-21.12,2.19-31.41,5.2-28.43,8.3-52.61,23.84-73.21,44.82C27.86,71.86,13.73,96.78,6.05,125.23c-10.01,37.08-7.51,73.38,6.78,108.98,12.22,30.44,31.79,55.05,57.71,74.69,13.62,10.32,28.51,18.52,44.4,24.53,22.56,8.53,45.97,11.94,70.2,11.07,24.01-.87,46.57-6.75,67.68-17.73,34.11-17.75,60.94-43.14,78.55-78.03,13.64-27.02,19.54-55.59,17.93-85.66Zm-67.21,67.25c-4.6,17.8-17.42,28.22-33.87,34.44-11.65,4.41-23.93,5.25-36.27,5.11-7.97-.08-7.81-.1-7.72,7.78.14,12.12.04,24.24.04,36.56-7.03,0-14.16.27-21.26-.12-3.4-.18-4.36-3.24-4.39-6.38-.09-11.01-.2-22.01-.25-33.02-.02-4.54-.06-4.67-4.49-4.74-3.98-.06-7.97-.1-11.95-.1-2.54,0-3.74.84-3.64,3.88.4,12.37.4,24.76.74,37.13.08,2.91-.85,3.76-3.66,3.68-6.71-.2-13.43-.21-20.14-.11-2.44.04-3.05-.81-3.02-3.19.1-10.89.04-21.78-.02-32.68-.05-8.66-.09-8.62-8.66-8.63-13.77,0-27.54-.12-41.31-.04-2.54.01-3.39-.74-3.26-3.33.36-6.87.57-13.74.67-20.62.04-2.5.98-2.94,3.33-2.89,5.56.11,11.15.07,16.68-.4,7.65-.64,11.37-4.81,11.39-12.59.05-14.1-.03-28.2-.14-42.31-.2-24.99-.45-49.99-.7-74.98-.02-1.72-.34-3.45-.19-5.15.41-4.64-2.16-7.11-6.08-8.28-2.9-.86-5.97-1.42-8.99-1.56-5-.22-10.01-.04-15.02.09-2.38.06-3.63-.82-3.69-3.31-.17-7.22-.37-14.43-.57-21.65-.08-2.69,1.9-2.06,3.37-2.06,15.02-.03,30.05-.03,45.07-.04,2.13,0,4.26,0,6.41,0V28.2c.97-.14,2.16-.44,3.36-.46,5.23-.08,10.47-.13,15.7-.1,6.25.03,7.31,1.09,7.35,7.24.08,10.78.22,21.56.13,32.33-.02,2.7.73,3.73,3.45,3.64,4.32-.15,8.65-.15,12.97,0,2.6.09,3.28-.95,3.24-3.45-.15-11.92-.14-23.85-.19-35.77,0-1.02,0-2.04,0-3.99,6.87,0,13.33,0,19.79,0,5.73,0,5.66.01,5.74,5.74.17,11.69.5,23.38.57,35.07.02,3.05,2.01,3.26,3.96,3.63,7.7,1.44,15.52,2.41,23.11,4.29,4.65,1.15,9.12,3.33,13.4,5.59,4.21,2.23,8.12,5.05,12.06,7.77,11.51,7.93,15.7,19.36,15.48,32.94-.26,15.76-7.48,27.45-20.35,35.94-.72.47-1.32,1.12-2.2,1.88,4.61,2.49,8.92,4.72,13.14,7.1,15.1,8.51,23.81,21.11,23.4,38.93-.19,7.96-.52,16.16-2.49,23.8Z"/>
  <path class="cls-1" d="m153.32,185.61c16.11.95,31.87,1.57,47.57,2.97,4.83.43,9.66,2.57,14.15,4.67,10.37,4.84,14.54,14.76,12.12,26.23-3.21,15.2-13.3,22.95-27.56,25.17-9.82,1.52-19.91,1.17-29.88,1.74-3.72.21-7.45.53-11.13,1.05-3.59.51-5.41-.44-5.42-3.58-.08-18.34-.09-36.67-.12-55.01,0-.66.11-1.33.27-3.24Z"/>
  <path class="cls-1" d="m152.25,132.88c0-7.78.11-15.56-.06-23.34-.06-2.84.64-3.76,3.64-3.62,8.84.42,17.76-.06,26.53.85,6.22.65,12.66,2.12,18.32,4.73,13.42,6.21,15.57,17.6,11.44,29.96-4.54,13.6-13.64,19.17-27.87,19.22-9.43.03-18.86-.16-28.29-.18-2.76,0-3.59-1.11-3.51-3.94.22-7.89.08-15.79.08-23.69h-.28Z"/>
</svg>