<svg width="24" height="24" viewBox="0 0 24 24" fill="none" xmlns="http://www.w3.org/2000/svg">
<path d="M10.783 21H3.93303C3.67687 20.9906 3.43487 20.8801 3.26 20.6927C3.08514 20.5053 2.99166 20.2562 3.00003 20V7.828C3.00014 7.29761 3.21093 6.78899 3.58603 6.414L6.41403 3.586C6.78901 3.2109 7.29764 3.00011 7.82803 3H16.067C16.3232 3.00939 16.5652 3.11989 16.7401 3.30731C16.9149 3.49473 17.0084 3.74381 17 4V6.478M8.00003 3V7C8.00003 7.26522 7.89467 7.51957 7.70714 7.70711C7.5196 7.89464 7.26525 8 7.00003 8H3.00003M16.056 21C14.5694 19.9724 13.35 18.6042 12.4995 17.0096C11.6491 15.4149 11.1922 13.6401 11.167 11.833L16.056 10L20.944 11.833C20.9189 13.64 20.4621 15.4147 19.6118 17.0093C18.7616 18.6039 17.5424 19.9722 16.056 21Z" stroke="#2F2F38" stroke-width="2" stroke-linecap="round" stroke-linejoin="round"/>
</svg>
