<svg width="24" height="24" viewBox="0 0 24 24" fill="none" xmlns="http://www.w3.org/2000/svg">
<path d="M19.3441 15.168L17.9441 13.768C17.5726 13.3969 17.0691 13.1885 16.5441 13.1885C16.0191 13.1885 15.5155 13.3969 15.1441 13.768L14.4441 14.468C14.0728 14.8393 13.5692 15.0478 13.0441 15.0478C12.519 15.0478 12.0154 14.8393 11.6441 14.468L9.54409 12.368C9.17281 11.9967 8.96423 11.4931 8.96423 10.968C8.96423 10.4429 9.17281 9.93929 9.54409 9.56797L10.2441 8.86797C10.6151 8.49653 10.8235 7.99299 10.8235 7.46797C10.8235 6.94296 10.6151 6.43942 10.2441 6.06797L8.84409 4.66797C8.6725 4.46361 8.45826 4.29928 8.2164 4.18654C7.97454 4.0738 7.71093 4.01538 7.44409 4.01538C7.17724 4.01538 6.91363 4.0738 6.67177 4.18654C6.42991 4.29928 6.21567 4.46361 6.04409 4.66797C2.36209 8.32297 4.10009 12.542 7.78009 16.22C11.4601 19.898 15.6801 21.638 19.3441 17.972C19.5491 17.8004 19.7141 17.5859 19.8272 17.3437C19.9404 17.1015 19.9991 16.8373 19.9991 16.57C19.9991 16.3026 19.9404 16.0385 19.8272 15.7962C19.7141 15.554 19.5491 15.3395 19.3441 15.168Z" stroke="#2F2F38" stroke-width="2" stroke-linecap="round" stroke-linejoin="round"/>
</svg>
