<svg width="24" height="24" viewBox="0 0 24 24" fill="none" xmlns="http://www.w3.org/2000/svg">
<path d="M13.905 3.31598L17.633 7.99998M20 12H15C14.4696 12 13.9609 12.2107 13.5858 12.5858C13.2107 12.9608 13 13.4695 13 14V15C13 15.5304 13.2107 16.0391 13.5858 16.4142C13.9609 16.7893 14.4696 17 15 17H20M20 12C20.2652 12 20.5196 12.1053 20.7071 12.2929C20.8946 12.4804 21 12.7348 21 13V16C21 16.2652 20.8946 16.5196 20.7071 16.7071C20.5196 16.8946 20.2652 17 20 17M20 12V8.99998C20 8.73476 19.8946 8.48041 19.7071 8.29287C19.5196 8.10534 19.2652 7.99998 19 7.99998H4C3.73478 7.99998 3.48043 8.10534 3.29289 8.29287C3.10536 8.48041 3 8.73476 3 8.99998V20C3 20.2652 3.10536 20.5196 3.29289 20.7071C3.48043 20.8946 3.73478 21 4 21H19C19.2652 21 19.5196 20.8946 19.7071 20.7071C19.8946 20.5196 20 20.2652 20 20V17M13.633 7.99998L9.905 3.31598L4.352 7.99998H13.633Z" stroke="#2F2F38" stroke-width="2" stroke-linecap="round" stroke-linejoin="round"/>
</svg>
